<svg width="285" height="69" viewBox="0 0 285 69" fill="none" xmlns="http://www.w3.org/2000/svg">
<path d="M19.8801 15.9843C8.9781 15.9843 0 23.1768 0 37.0978C0 50.6707 8.6866 57.6312 19.472 57.6312C29.5578 57.6312 36.9618 52.7008 37.9529 43.0722L38.0112 42.4921H27.5173L27.4007 43.0722C26.5262 47.4805 23.9027 49.9747 19.8218 49.9747C15.1578 49.9747 10.9603 46.5524 10.9603 36.4597C10.9603 27.8171 14.7497 23.6408 19.7635 23.6408C24.0193 23.6408 26.6428 25.671 27.5173 29.9633L27.6339 30.5433H38.1278L38.0695 29.9633C37.2533 22.0747 31.365 15.9843 19.8801 15.9843Z" fill="#030303"/>
<path d="M61.6443 25.0329C59.6621 25.0329 57.2135 25.903 55.5228 27.7591L53.3075 32.1094V25.845H42.8136V56.8191H53.3075V45.4503C53.3075 36.1117 56.1641 33.2115 64.0345 33.7335V25.2069C63.2766 25.0909 62.6354 25.0329 61.6443 25.0329Z" fill="#030303"/>
<path d="M100.059 25.845H88.574L82.2194 48.5246L75.8064 25.845H64.1466L77.0307 58.2112L76.6226 59.0813C75.6316 61.2854 73.9409 62.0975 71.4923 62.0975C70.4429 62.0975 69.5101 62.0975 68.6356 61.9815V68.71C70.1514 68.942 71.3757 69 73.0664 69C80.4704 69 83.8518 66.6218 87.7578 56.8191L100.059 25.845Z" fill="#030303"/>
<path d="M123.519 25.0329C120.37 25.0329 117.339 25.671 115.59 26.9471L113.258 30.3693V25.845H102.764V68.1879H113.258V52.8169L115.298 56.1231C116.872 57.0512 119.904 57.6312 122.469 57.6312C130.456 57.6312 137.219 51.6568 137.219 40.636C137.219 31.4714 131.972 25.0329 123.519 25.0329ZM119.612 50.5547C116.464 50.5547 113.258 48.4665 113.258 42.2601V40.926C113.258 34.4296 116.056 32.1094 119.904 32.1094C123.577 32.1094 126.492 35.3576 126.492 41.158C126.492 47.4805 123.693 50.5547 119.612 50.5547Z" fill="#030303"/>
<path d="M154.356 32.5734H161.235V26.077H154.356V18.0724H143.862V26.077H138.906V32.5734H143.862V45.5083C143.862 47.2485 143.862 48.6986 143.978 50.4967C144.328 55.253 146.66 57.6312 154.414 57.6312C156.629 57.6312 158.553 57.4572 160.594 57.1092V50.6127C155.638 50.8447 154.647 50.1487 154.414 47.0164C154.356 46.2044 154.356 45.0443 154.356 44.0002V32.5734Z" fill="#030303"/>
<path d="M179.747 25.0329C169.545 25.0329 163.015 31.3554 163.015 41.3321C163.015 51.2507 169.545 57.6312 179.747 57.6312C189.949 57.6312 196.479 51.2507 196.479 41.3321C196.479 31.3554 189.949 25.0329 179.747 25.0329ZM179.747 50.5547C176.016 50.5547 173.742 47.4805 173.742 41.3321C173.742 35.1256 176.016 32.1094 179.747 32.1094C183.478 32.1094 185.752 35.1256 185.752 41.3321C185.752 47.4805 183.478 50.5547 179.747 50.5547Z" fill="#030303"/>
<path d="M213.04 24.9169H232.803V16.7963H202.546V56.8191H213.04V40.81H231.054V32.6895H213.04V24.9169Z" fill="#030303"/>
<path d="M242.145 13.2581C238.88 13.2581 236.723 15.2302 236.723 18.3625C236.723 21.4947 238.88 23.4668 242.145 23.4668C245.41 23.4668 247.567 21.4947 247.567 18.3625C247.567 15.2302 245.41 13.2581 242.145 13.2581ZM247.392 56.8191V25.845H236.898V56.8191H247.392Z" fill="#030303"/>
<path d="M274.273 41.216L284.883 25.845H272.815L268.035 34.7776L263.138 25.845H250.895L261.33 41.1L250.487 56.8191H262.555L267.802 47.4805L272.757 56.8191H285L274.273 41.216Z" fill="#030303"/>
<path d="M242.145 0C238.88 0 236.723 1.97214 236.723 5.10435C236.723 8.23657 238.88 10.2087 242.145 10.2087C245.41 10.2087 247.567 8.23657 247.567 5.10435C247.567 1.97214 245.41 0 242.145 0Z" fill="#030303"/>
</svg>
